<?xml version="1.0" encoding="UTF-8"?>
<!-- Generator: Adobe Illustrator 28.0.0, SVG Export Plug-In . SVG Version: 6.00 Build 0)  -->
<svg xmlns="http://www.w3.org/2000/svg" xmlns:xlink="http://www.w3.org/1999/xlink" version="1.1" id="Ebene_1" x="0px" y="0px" viewBox="0 0 230.51 47.33" style="enable-background:new 0 0 230.51 47.33;" xml:space="preserve">
<style type="text/css">
	.st0{fill:#193C35;}
	.st1{fill:url(#SVGID_1_);}
	.st2{fill:url(#SVGID_00000183226305419100925300000013272033863450313090_);}
</style>
<g>
	<rect x="152.7" y="2.34" class="st0" width="6.39" height="6.38"></rect>
	<polygon class="st0" points="147.46,17 152.7,17 152.7,40.42 159.08,40.42 159.08,11.49 147.46,11.49  "></polygon>
	<path class="st0" d="M138.15,12.62c-0.82-0.76-1.74-1.13-2.79-1.13h-5.88h-9.85h-3.95V17h4.63h9.16h4.57   c0.42,0,0.82,0.17,1.12,0.47l0.07,0.06c0.33,0.34,0.47,0.69,0.47,1.14v3.84h-16.52c-1.08,0-2.04,0.39-2.79,1.14l-2.3,2.31   c-0.81,0.81-1.21,1.77-1.21,2.93v4.74c0,1.15,0.39,2.11,1.21,2.92l2.74,2.74c0.79,0.78,1.67,1.14,2.8,1.14h10.3   c1.13,0,2.03-0.37,2.81-1.14l3.44-3.44v4.59h5.92V18.29c0-1.16-0.39-2.11-1.2-2.93L138.15,12.62z M135.71,28.88   c0,0.44-0.16,0.79-0.48,1.13l-4.43,4.42c-0.31,0.31-0.7,0.48-1.12,0.48h-8.74c-0.41,0-0.81-0.18-1.12-0.48l-0.07-0.06   c-0.33-0.33-0.47-0.68-0.47-1.13v-3.98c0-0.44,0.14-0.79,0.47-1.13l0.07-0.06c0.31-0.31,0.71-0.48,1.12-0.48h14.77V28.88z"></path>
	<path class="st0" d="M100.9,40.42V7.85h-5.25V2.34h11.62v38.08H100.9z"></path>
	<path class="st0" d="M187.9,40.42V18.26c0-0.36-0.12-0.61-0.36-0.85l-0.49-0.49c-0.24-0.24-0.55-0.36-0.85-0.36h-7.41   c-0.3,0-0.61,0.12-0.85,0.36l-5.12,5.08c-0.24,0.24-0.36,0.49-0.36,0.85v17.57h-6.39V16.57v-5.08h5.86l0.02,4.59l3.36-3.37   c0.85-0.85,1.82-1.21,2.97-1.21h9.09c1.15,0,2.12,0.36,2.97,1.21l2.67,2.67c0.85,0.85,1.27,1.88,1.27,3.1v21.96H187.9z"></path>
	<path class="st0" d="M89.85,12.62c-0.78-0.78-1.67-1.13-2.8-1.13H71.33c-1.14,0-2.03,0.36-2.8,1.13l-2.74,2.74   c-0.81,0.81-1.21,1.76-1.21,2.93v15.32c0,1.15,0.39,2.11,1.21,2.92l2.74,2.74c0.77,0.78,1.66,1.14,2.8,1.14h12.33   c0.01,0,0.01,0,0.02,0h8.54v-5.51h-6.48H79.2h-6.56c-0.42,0-0.82-0.18-1.13-0.48l-0.05-0.06c-0.33-0.33-0.48-0.68-0.48-1.13v-5.65   H93.8v-9.29c0-1.16-0.39-2.11-1.21-2.93L89.85,12.62z M87.42,22.51H70.98v-3.84c0-0.44,0.15-0.79,0.48-1.14l0.05-0.06   c0.31-0.31,0.72-0.47,1.13-0.47h13.11c0.41,0,0.81,0.17,1.13,0.47l0.06,0.06c0.33,0.34,0.48,0.69,0.48,1.14V22.51z"></path>
	<path class="st0" d="M226.02,12.62c-0.78-0.78-1.67-1.13-2.8-1.13H207.5c-1.14,0-2.03,0.36-2.8,1.13l-2.74,2.74   c-0.81,0.81-1.21,1.76-1.21,2.93v15.32c0,1.15,0.39,2.11,1.21,2.92l2.74,2.74c0.77,0.78,1.66,1.14,2.8,1.14h12.33   c0.01,0,0.01,0,0.02,0h8.54v-5.51h-6.48h-1.64h-11.47c-0.42,0-0.82-0.18-1.13-0.48l-0.05-0.06c-0.33-0.33-0.48-0.68-0.48-1.13   v-5.65h22.82v-9.29c0-1.16-0.39-2.11-1.21-2.93L226.02,12.62z M223.59,22.51h-16.44v-3.84c0-0.44,0.15-0.79,0.48-1.14l0.05-0.06   c0.31-0.31,0.72-0.47,1.13-0.47h13.11c0.41,0,0.81,0.17,1.13,0.47l0.06,0.06c0.33,0.34,0.48,0.69,0.48,1.14V22.51z"></path>
</g>
<g>
	<linearGradient id="SVGID_1_" gradientUnits="userSpaceOnUse" x1="-17.0133" y1="-21.7572" x2="33.9029" y2="66.4323">
		<stop offset="0.2311" style="stop-color:#008E7B"></stop>
		<stop offset="0.8076" style="stop-color:#8CBD22"></stop>
	</linearGradient>
	<path class="st1" d="M0.71,17.92c0,1.66,0,8.27,0,9.29c10.27,1.15,18.45,9.33,19.6,19.6c1.12,0,7.76,0,9.29,0   C28.39,31.43,16.08,19.12,0.71,17.92z"></path>
	
		<linearGradient id="SVGID_00000132792489877647192290000010514695665138855871_" gradientUnits="userSpaceOnUse" x1="-17.5857" y1="-73.4622" x2="33.339" y2="14.7421">
		<stop offset="0.7397" style="stop-color:#008E7B"></stop>
		<stop offset="1" style="stop-color:#8CBD22"></stop>
	</linearGradient>
	<path style="fill:url(#SVGID_00000132792489877647192290000010514695665138855871_);" d="M27.4,0.52c-2.6,0-7.06,0-9.29-0.01   c1.2,15.38,13.51,27.69,28.89,28.9c0-2.35,0-8.11,0-9.29C36.72,18.97,28.54,10.79,27.4,0.52z"></path>
</g>
</svg>
