<svg xmlns="http://www.w3.org/2000/svg" width="143" height="74.948" viewBox="0 0 143 74.948"><defs><style>.a{fill:#009d3c;}</style></defs><title>init_logo</title><path class="a" d="M143,25.823l-8.379,7.238H113.866V67.571a7.374,7.374,0,1,1-14.748,0h0V33.062h-2.1v0h0a7.374,7.374,0,0,1,0-14.748h2.1V6.841h.027a7.365,7.365,0,0,1,14.693,0h.029v11.47h20.755Z"/><path class="a" d="M63.018,36.461V67.566a7.481,7.481,0,0,1-14.96,0V38.64a5.579,5.579,0,1,0-11.158,0V67.546c0,.007,0,.012,0,.017A7.3,7.3,0,0,1,29.7,74.948a7.589,7.589,0,0,1-7.548-7.381V37.843c0-.6-.025-1.071-.025-1.614,0-9.9,9.39-17.919,20.624-17.919S63.01,26.332,63.01,36.228Z"/><path class="a" d="M7.375,38.07A7.373,7.373,0,0,0,0,45.444V67.573a7.375,7.375,0,0,0,14.749,0V45.464h0A7.391,7.391,0,0,0,7.375,38.07"/><path class="a" d="M7.375,33.057A7.374,7.374,0,1,0,0,25.683a7.376,7.376,0,0,0,7.375,7.374"/><path class="a" d="M85.141,45.473v-.02a7.375,7.375,0,0,0-14.749,0v22.12a7.375,7.375,0,1,0,14.749,0v-22.1Z"/><path class="a" d="M77.767,33.058a7.374,7.374,0,1,0-7.374-7.374,7.375,7.375,0,0,0,7.374,7.374"/></svg>